<?xml version="1.0" encoding="UTF-8" standalone="no"?><!-- Generator: Gravit.io --><svg xmlns="http://www.w3.org/2000/svg" xmlns:xlink="http://www.w3.org/1999/xlink" style="isolation:isolate" viewBox="0 0 1000 1000" width="1000pt" height="1000pt"><defs><clipPath id="_clipPath_OqmKneWn3ZdeHouL8nkXSrAftzLtcfXs"><rect width="1000" height="1000"/></clipPath></defs><g clip-path="url(#_clipPath_OqmKneWn3ZdeHouL8nkXSrAftzLtcfXs)"><circle vector-effect="non-scaling-stroke" cx="500" cy="500" r="500" fill="rgb(255,255,255)"/><g><path d=" M 414.711 345.467 L 504.489 264.133 L 737.911 491.867 L 737.911 345.467 L 504.489 134 L 271.067 345.467 L 594.267 638.267 L 504.489 719.6 L 262.089 500 L 262.089 646.4 L 504.489 866 L 737.911 638.267 L 414.711 345.467 Z " fill="rgb(255,153,0)"/><path d=" M 612.222 369.867 L 737.911 491.867 L 737.911 345.467 L 612.222 369.867 Z " fill="rgb(215,129,0)"/><path d=" M 612.222 369.867 L 639.156 256 L 737.911 345.467 L 612.222 369.867 Z " fill="rgb(255,153,0)"/><path d=" M 612.222 369.867 L 639.156 256 L 504.489 264.133 L 612.222 369.867 Z " fill="rgb(255,177,59)"/><path d=" M 504.489 134 L 639.156 256 L 504.489 264.133 L 504.489 134 Z " fill="rgb(215,129,0)"/><path d=" M 504.489 134 L 414.711 215.333 L 504.489 264.133 L 504.489 134 Z " fill="rgb(255,177,59)"/><path d=" M 414.711 345.467 L 414.711 215.333 L 504.489 264.133 L 414.711 345.467 Z " fill="rgb(255,153,0)"/><path d=" M 414.711 345.467 L 414.711 215.333 L 342.889 280.4 L 414.711 345.467 Z " fill="rgb(215,129,0)"/><path d=" M 414.711 345.467 L 271.067 345.467 L 342.889 280.4 L 414.711 345.467 Z " fill="rgb(255,177,59)"/><path d=" M 414.711 345.467 L 271.067 345.467 L 369.822 434.933 L 414.711 345.467 Z " fill="rgb(255,153,0)"/><path d=" M 414.711 345.467 L 504.489 426.8 L 369.822 434.933 L 414.711 345.467 Z " fill="rgb(255,177,59)"/><path d=" M 468.578 524.4 L 504.489 426.8 L 369.822 434.933 L 468.578 524.4 Z " fill="rgb(255,153,0)"/><path d=" M 468.578 524.4 L 504.489 426.8 L 603.244 516.267 L 468.578 524.4 Z " fill="rgb(215,129,0)"/><path d=" M 468.578 524.4 L 540.4 589.467 L 603.244 516.267 L 468.578 524.4 Z " fill="rgb(255,153,0)"/><path d=" M 737.911 638.267 L 540.4 589.467 L 603.244 516.267 L 737.911 638.267 Z " fill="rgb(255,177,59)"/><path d=" M 737.911 638.267 L 540.4 589.467 L 594.267 638.267 L 737.911 638.267 Z " fill="rgb(215,129,0)"/><path d=" M 737.911 638.267 L 639.156 735.867 L 594.267 638.267 L 737.911 638.267 Z " fill="rgb(255,177,59)"/><path d=" M 504.489 719.6 L 639.156 735.867 L 594.267 638.267 L 504.489 719.6 Z " fill="rgb(255,153,0)"/><path d=" M 504.489 719.6 L 639.156 735.867 L 504.489 866 L 504.489 719.6 Z " fill="rgb(215,129,0)"/><path d=" M 504.489 719.6 L 414.711 784.667 L 504.489 866 L 504.489 719.6 Z " fill="rgb(255,153,0)"/><path d=" M 504.489 719.6 L 414.711 784.667 L 432.667 654.533 L 504.489 719.6 Z " fill="rgb(255,177,59)"/><path d=" M 306.978 687.067 L 414.711 784.667 L 432.667 654.533 L 306.978 687.067 Z " fill="rgb(215,129,0)"/><path d=" M 306.978 687.067 L 351.867 581.333 L 432.667 654.533 L 306.978 687.067 Z " fill="rgb(255,153,0)"/><path d=" M 306.978 687.067 L 351.867 581.333 L 262.089 646.4 L 306.978 687.067 Z " fill="rgb(255,177,59)"/><path d=" M 262.089 500 L 351.867 581.333 L 262.089 646.4 L 262.089 500 Z " fill="rgb(255,153,0)"/></g></g></svg>